<?xml version="1.0" standalone="no"?><!DOCTYPE svg PUBLIC "-//W3C//DTD SVG 1.1//EN" "http://www.w3.org/Graphics/SVG/1.1/DTD/svg11.dtd"><svg t="1756995598942" class="icon" viewBox="0 0 1024 1024" version="1.1" xmlns="http://www.w3.org/2000/svg" p-id="7607" xmlns:xlink="http://www.w3.org/1999/xlink" width="192" height="192"><path d="M915.324718 222.339282L558.762667 16.226462a93.814154 93.814154 0 0 0-93.55159 0l-356.562051 206.11282a93.814154 93.814154 0 0 0-46.736411 81.053539v411.621743a93.814154 93.814154 0 0 0 46.736411 81.053539l356.562051 206.086564a93.814154 93.814154 0 0 0 93.577846 0l356.562051-206.112821a93.814154 93.814154 0 0 0 46.736411-81.027282V303.392821a93.814154 93.814154 0 0 0-46.736411-81.053539zM769.312821 644.069744a25.757538 25.757538 0 0 1-35.18359 9.426051l-222.444308-128.446359-222.418051 128.446359a25.757538 25.757538 0 0 1-25.757539-44.635898l222.733129-128.787692V224.150974a25.757538 25.757538 0 0 1 51.515076 0v256.472616l222.129231 128.236307c12.314256 7.115487 16.541538 22.869333 9.426052 35.18359z" fill="#578DEB" p-id="7608"></path></svg>